<svg width="145" height="22" viewBox="0 0 145 22" fill="none" xmlns="http://www.w3.org/2000/svg">
<path d="M10.3399 21.5632C8.31398 21.5632 6.57886 21.1224 5.13448 20.2407C3.69011 19.3497 2.57869 18.1117 1.80023 16.5266C1.03115 14.9416 0.646605 13.1033 0.646605 11.0117C0.646605 8.9202 1.03115 7.08191 1.80023 5.49684C2.57869 3.91179 3.69011 2.67844 5.13448 1.79681C6.57886 0.905797 8.31398 0.460292 10.3399 0.460292C12.6752 0.460292 14.6214 1.04648 16.1783 2.21887C17.7352 3.38187 18.8279 4.95286 19.4563 6.93184L16.0376 7.87444C15.6437 6.55199 14.9731 5.52029 14.0258 4.77935C13.0785 4.02902 11.8499 3.65386 10.3399 3.65386C8.9799 3.65386 7.84503 3.95868 6.93526 4.56832C6.03487 5.17796 5.35489 6.03614 4.89532 7.14287C4.44512 8.24022 4.21534 9.52984 4.20596 11.0117C4.20596 12.4936 4.43106 13.7879 4.88125 14.8947C5.34082 15.992 6.02549 16.8455 6.93526 17.4551C7.84503 18.0648 8.9799 18.3696 10.3399 18.3696C11.8499 18.3696 13.0785 17.9944 14.0258 17.2441C14.9731 16.4938 15.6437 15.4621 16.0376 14.149L19.4563 15.0916C18.8279 17.0706 17.7352 18.6463 16.1783 19.8187C14.6214 20.9817 12.6752 21.5632 10.3399 21.5632ZM22.4749 21.1411V0.88235H30.8457C31.0427 0.88235 31.2959 0.891728 31.6054 0.910486C31.9149 0.919866 32.201 0.948003 32.4636 0.994898C33.636 1.1731 34.602 1.56233 35.3617 2.16259C36.1308 2.76285 36.6982 3.52255 37.064 4.4417C37.4392 5.35147 37.6268 6.36441 37.6268 7.48052C37.6268 9.13123 37.2094 10.5522 36.3747 11.7433C35.5399 12.9251 34.2597 13.6566 32.5339 13.938L31.0849 14.0646H25.8654V21.1411H22.4749ZM34.1096 21.1411L30.1141 12.8969L33.5609 12.1372L37.9503 21.1411H34.1096ZM25.8654 10.8992H30.705C30.8926 10.8992 31.1036 10.8898 31.3381 10.871C31.5726 10.8523 31.7883 10.8148 31.9853 10.7585C32.548 10.6178 32.9888 10.3693 33.3077 10.0129C33.636 9.65646 33.8658 9.25316 33.9971 8.80296C34.1378 8.35277 34.2081 7.91195 34.2081 7.48052C34.2081 7.04908 34.1378 6.60826 33.9971 6.15807C33.8658 5.6985 33.636 5.29051 33.3077 4.9341C32.9888 4.5777 32.548 4.32915 31.9853 4.18847C31.7883 4.13219 31.5726 4.09937 31.3381 4.08999C31.1036 4.07123 30.8926 4.06185 30.705 4.06185H25.8654V10.8992ZM40.9795 21.1411V0.88235H54.0633V4.06185H44.37V9.0562H52.375V12.2357H44.37V17.9616H54.0633V21.1411H40.9795ZM57.3683 21.1411V0.88235H63.8258C63.9946 0.88235 64.3275 0.887039 64.8246 0.896419C65.3311 0.905797 65.8188 0.938624 66.2878 0.994898C67.8916 1.20124 69.2469 1.77336 70.3536 2.71127C71.4697 3.63979 72.3138 4.82624 72.8859 6.27062C73.4581 7.71499 73.7441 9.29536 73.7441 11.0117C73.7441 12.7281 73.4581 14.3085 72.8859 15.7528C72.3138 17.1972 71.4697 18.3884 70.3536 19.3263C69.2469 20.2548 67.8916 20.8222 66.2878 21.0286C65.8282 21.0848 65.3452 21.1177 64.8387 21.127C64.3322 21.1364 63.9946 21.1411 63.8258 21.1411H57.3683ZM60.8151 17.9475H63.8258C64.1071 17.9475 64.4635 17.9382 64.895 17.9194C65.3358 17.9006 65.725 17.8584 66.0627 17.7928C67.0193 17.6146 67.7978 17.1878 68.3981 16.5125C68.9983 15.8373 69.4391 15.0166 69.7205 14.0505C70.0113 13.0845 70.1566 12.0716 70.1566 11.0117C70.1566 9.91438 70.0113 8.88269 69.7205 7.91664C69.4298 6.9506 68.9796 6.13931 68.3699 5.48278C67.7697 4.82624 67.0006 4.40887 66.0627 4.23067C65.725 4.15564 65.3358 4.11343 64.895 4.10406C64.4635 4.0853 64.1071 4.07592 63.8258 4.07592H60.8151V17.9475ZM76.9995 21.1411V0.88235H85.0326C86.402 0.88235 87.5228 1.15903 88.395 1.7124C89.2766 2.25638 89.9285 2.95512 90.3505 3.80861C90.782 4.66211 90.9977 5.54374 90.9977 6.45351C90.9977 7.56962 90.7304 8.5169 90.1958 9.29536C89.6706 10.0738 88.9531 10.5991 88.0433 10.871V10.1676C89.3188 10.4584 90.2849 11.0633 90.9414 11.9825C91.6073 12.9016 91.9403 13.9474 91.9403 15.1198C91.9403 16.3203 91.7105 17.3707 91.2509 18.2711C90.7914 19.1715 90.1067 19.8749 89.1969 20.3814C88.2965 20.8879 87.1804 21.1411 85.8486 21.1411H76.9995ZM80.4322 17.9475H85.4265C86.0174 17.9475 86.5473 17.8303 87.0163 17.5958C87.4852 17.352 87.851 17.0143 88.1136 16.5829C88.3856 16.1421 88.5216 15.6215 88.5216 15.0213C88.5216 14.4773 88.4044 13.9896 88.1699 13.5581C87.9354 13.1267 87.5931 12.7844 87.1429 12.5311C86.6927 12.2685 86.1534 12.1372 85.525 12.1372H80.4322V17.9475ZM80.4322 8.97179H84.9904C85.4781 8.97179 85.9143 8.878 86.2988 8.69041C86.6833 8.50283 86.9882 8.22615 87.2132 7.86037C87.4383 7.49458 87.5509 7.04439 87.5509 6.50978C87.5509 5.80635 87.3258 5.22016 86.8756 4.75121C86.4254 4.28226 85.797 4.04778 84.9904 4.04778H80.4322V8.97179ZM94.6797 21.1411V0.88235H107.764V4.06185H98.0702V9.0562H106.075V12.2357H98.0702V17.9616H107.764V21.1411H94.6797ZM115.627 21.1411L109.24 0.88235H112.729L118.075 17.8491L123.491 0.88235H126.98L120.593 21.1411H115.627ZM133.948 21.1411V12.8406L127.054 0.88235H131.007L135.664 8.95772L140.307 0.88235H144.26L137.38 12.8406V21.1411H133.948Z" fill="white"/>
</svg>
