<svg width="145" height="22" viewBox="0 0 145 22" fill="none" xmlns="http://www.w3.org/2000/svg">
<path d="M10.3398 21.4221C8.31394 21.4221 6.57881 20.9812 5.13443 20.0996C3.69006 19.2086 2.57864 17.9706 1.80018 16.3855C1.0311 14.8004 0.646556 12.9621 0.646556 10.8706C0.646556 8.77909 1.0311 6.94079 1.80018 5.35573C2.57864 3.77067 3.69006 2.53733 5.13443 1.65569C6.57881 0.764684 8.31394 0.319179 10.3398 0.319179C12.6752 0.319179 14.6214 0.90537 16.1783 2.07775C17.7352 3.24075 18.8279 4.81175 19.4563 6.79073L16.0376 7.73332C15.6437 6.41088 14.9731 5.37918 14.0258 4.63823C13.0785 3.88791 11.8498 3.51275 10.3398 3.51275C8.97985 3.51275 7.84498 3.81757 6.93521 4.42721C6.03482 5.03684 5.35484 5.89503 4.89527 7.00176C4.44507 8.09911 4.21529 9.38873 4.20591 10.8706C4.20591 12.3525 4.43101 13.6468 4.8812 14.7535C5.34077 15.8509 6.02545 16.7044 6.93521 17.314C7.84498 17.9237 8.97985 18.2285 10.3398 18.2285C11.8498 18.2285 13.0785 17.8533 14.0258 17.103C14.9731 16.3527 15.6437 15.321 16.0376 14.0079L19.4563 14.9505C18.8279 16.9295 17.7352 18.5052 16.1783 19.6776C14.6214 20.8406 12.6752 21.4221 10.3398 21.4221ZM22.4748 21V0.741236H30.8457C31.0426 0.741236 31.2958 0.750615 31.6054 0.769373C31.9149 0.778753 32.2009 0.80689 32.4635 0.853785C33.6359 1.03199 34.602 1.42122 35.3617 2.02148C36.1308 2.62174 36.6982 3.38144 37.064 4.30059C37.4391 5.21036 37.6267 6.2233 37.6267 7.3394C37.6267 8.99012 37.2093 10.411 36.3746 11.6022C35.5399 12.7839 34.2596 13.5155 32.5339 13.7969L31.0848 13.9235H25.8654V21H22.4748ZM34.1096 21L30.1141 12.7558L33.5609 11.9961L37.9503 21H34.1096ZM25.8654 10.7581H30.705C30.8925 10.7581 31.1036 10.7487 31.3381 10.7299C31.5725 10.7112 31.7882 10.6737 31.9852 10.6174C32.548 10.4767 32.9888 10.2282 33.3077 9.87175C33.6359 9.51534 33.8657 9.11204 33.997 8.66185C34.1377 8.21166 34.208 7.77084 34.208 7.3394C34.208 6.90797 34.1377 6.46715 33.997 6.01696C33.8657 5.55738 33.6359 5.14939 33.3077 4.79299C32.9888 4.43658 32.548 4.18804 31.9852 4.04735C31.7882 3.99108 31.5725 3.95825 31.3381 3.94887C31.1036 3.93012 30.8925 3.92074 30.705 3.92074H25.8654V10.7581ZM40.9794 21V0.741236H54.0632V3.92074H44.37V8.91508H52.375V12.0946H44.37V17.8205H54.0632V21H40.9794ZM57.3682 21V0.741236H63.8257C63.9945 0.741236 64.3275 0.745926 64.8246 0.755305C65.3311 0.764684 65.8188 0.79751 66.2877 0.853785C67.8915 1.06012 69.2468 1.63225 70.3535 2.57015C71.4696 3.49868 72.3138 4.68513 72.8859 6.1295C73.458 7.57388 73.7441 9.15425 73.7441 10.8706C73.7441 12.587 73.458 14.1674 72.8859 15.6117C72.3138 17.0561 71.4696 18.2472 70.3535 19.1852C69.2468 20.1137 67.8915 20.6811 66.2877 20.8875C65.8281 20.9437 65.3451 20.9766 64.8387 20.9859C64.3322 20.9953 63.9945 21 63.8257 21H57.3682ZM60.815 17.8064H63.8257C64.1071 17.8064 64.4635 17.7971 64.8949 17.7783C65.3357 17.7595 65.725 17.7173 66.0626 17.6517C67.0193 17.4735 67.7977 17.0467 68.398 16.3714C68.9983 15.6961 69.4391 14.8755 69.7205 13.9094C70.0112 12.9434 70.1566 11.9305 70.1566 10.8706C70.1566 9.77327 70.0112 8.74157 69.7205 7.77553C69.4297 6.80949 68.9795 5.9982 68.3699 5.34166C67.7696 4.68513 67.0005 4.26776 66.0626 4.08956C65.725 4.01453 65.3357 3.97232 64.8949 3.96294C64.4635 3.94418 64.1071 3.93481 63.8257 3.93481H60.815V17.8064Z" fill="#333333"/>
<path d="M76.9994 21V0.741236H85.0326C86.4019 0.741236 87.5227 1.01792 88.395 1.57128C89.2766 2.11527 89.9284 2.81401 90.3505 3.6675C90.7819 4.521 90.9977 5.40263 90.9977 6.3124C90.9977 7.4285 90.7303 8.37579 90.1957 9.15425C89.6705 9.93271 88.953 10.4579 88.0432 10.7299V10.0265C89.3188 10.3173 90.2848 10.9222 90.9414 11.8414C91.6073 12.7605 91.9402 13.8063 91.9402 14.9786C91.9402 16.1792 91.7105 17.2296 91.2509 18.13C90.7913 19.0304 90.1066 19.7338 89.1969 20.2403C88.2965 20.7468 87.1804 21 85.8485 21H76.9994ZM80.4321 17.8064H85.4265C86.0174 17.8064 86.5473 17.6892 87.0162 17.4547C87.4852 17.2109 87.851 16.8732 88.1136 16.4418C88.3856 16.001 88.5216 15.4804 88.5216 14.8802C88.5216 14.3362 88.4043 13.8485 88.1699 13.417C87.9354 12.9856 87.5931 12.6433 87.1429 12.39C86.6927 12.1274 86.1534 11.9961 85.525 11.9961H80.4321V17.8064ZM80.4321 8.83067H84.9904C85.4781 8.83067 85.9142 8.73688 86.2987 8.5493C86.6833 8.36172 86.9881 8.08504 87.2132 7.71925C87.4383 7.35347 87.5508 6.90328 87.5508 6.36867C87.5508 5.66524 87.3257 5.07905 86.8756 4.6101C86.4254 4.14114 85.797 3.90667 84.9904 3.90667H80.4321V8.83067ZM94.6797 21V0.741236H107.763V3.92074H98.0702V8.91508H106.075V12.0946H98.0702V17.8205H107.763V21H94.6797ZM115.627 21L109.24 0.741236H112.729L118.075 17.708L123.491 0.741236H126.98L120.593 21H115.627ZM133.948 21V12.6995L127.054 0.741236H131.007L135.664 8.8166L140.307 0.741236H144.26L137.38 12.6995V21H133.948Z" fill="#156064"/>
</svg>
