<svg width="24" height="32" viewBox="0 0 24 32" fill="none" xmlns="http://www.w3.org/2000/svg">
<path fill-rule="evenodd" clip-rule="evenodd" d="M1.67795 31.6544H13.7502C15.79 31.6544 17.4993 31.2665 18.8783 30.4909C20.2717 29.7152 21.3202 28.6379 22.0241 27.2589C22.7279 25.8799 23.0799 24.2711 23.0799 22.4325C23.0799 20.6369 22.5699 19.0353 21.5501 17.6276C20.8079 16.5885 19.8074 15.8116 18.5486 15.2969C19.2841 14.8544 19.904 14.2595 20.4081 13.5122C21.2269 12.32 21.6363 10.8692 21.6363 9.15985C21.6363 7.76651 21.3059 6.41626 20.6451 5.10911C19.9987 3.80196 19.0004 2.73181 17.6502 1.89868C16.3143 1.05119 14.5977 0.627441 12.5006 0.627441L1.66026 0.627441C3.18681 1.07614 4.55825 1.75845 5.77458 2.67436C6.85331 3.48016 7.78652 4.41384 8.5742 5.4754H12.4359C13.6712 5.4754 14.6337 5.83451 15.3231 6.55272C16.0126 7.27094 16.3574 8.16871 16.3574 9.24603C16.3574 10.0648 16.185 10.7543 15.8403 11.3145C15.4955 11.8747 15.0287 12.2985 14.4397 12.5857C13.8508 12.873 13.1829 13.0167 12.4359 13.0167H5.45485V11.0032C4.84062 9.13682 3.84832 7.66768 2.47797 6.59582C1.80935 6.06621 1.04919 5.65865 0.19751 5.37312V26.9087C1.04919 26.6232 1.80935 26.2156 2.47797 25.686C3.84832 24.6006 4.84062 23.1307 5.45485 21.2763V17.8646H13.2547C14.2171 17.8646 15.043 18.0657 15.7325 18.4679C16.422 18.8558 16.9463 19.3801 17.3054 20.0408C17.6645 20.7016 17.8441 21.4485 17.8441 22.2817C17.8441 23.201 17.6358 23.9982 17.2192 24.6733C16.817 25.3341 16.2568 25.8512 15.5386 26.2247C14.8204 26.5838 14.0088 26.7633 13.1039 26.7633H8.61068C7.81538 27.8489 6.87001 28.8041 5.77458 29.629C4.56295 30.5341 3.19741 31.2092 1.67795 31.6544Z" fill="white"/>
</svg>
