<svg width="24" height="32" viewBox="0 0 24 32" fill="none" xmlns="http://www.w3.org/2000/svg">
<path fill-rule="evenodd" clip-rule="evenodd" d="M1.678 31.5135H13.7503C15.79 31.5135 17.4994 31.1257 18.8784 30.35C20.2717 29.5743 21.3203 28.497 22.0241 27.118C22.728 25.739 23.0799 24.1302 23.0799 22.2916C23.0799 20.4961 22.57 18.8945 21.5501 17.4867C20.8079 16.4477 19.8074 15.6707 18.5487 15.156C19.2842 14.7135 19.904 14.1186 20.4082 13.3714C21.2269 12.1791 21.6363 10.7283 21.6363 9.01898C21.6363 7.62564 21.3059 6.27539 20.6452 4.96824C19.9988 3.66109 19.0005 2.59095 17.6502 1.75782C16.3143 0.91032 14.5978 0.486572 12.5006 0.486572L1.66031 0.486572C3.18686 0.935274 4.5583 1.61758 5.77463 2.53349C6.85336 3.33929 7.78656 4.27297 8.57425 5.33453H12.436C13.6713 5.33453 14.6337 5.69364 15.3232 6.41185C16.0127 7.13007 16.3574 8.02784 16.3574 9.10516C16.3574 9.92393 16.185 10.6134 15.8403 11.1736C15.4956 11.7338 15.0287 12.1576 14.4398 12.4449C13.8508 12.7322 13.1829 12.8758 12.436 12.8758H5.4549V10.8624C4.84066 8.99595 3.84837 7.52681 2.47802 6.45495C1.80939 5.92534 1.04924 5.51778 0.197556 5.23225V26.7678C1.04924 26.4823 1.80939 26.0747 2.47802 25.5451C3.84837 24.4597 4.84066 22.9898 5.4549 21.1355V17.7238H13.2547C14.2171 17.7238 15.0431 17.9249 15.7326 18.3271C16.4221 18.7149 16.9464 19.2392 17.3055 19.9C17.6646 20.5607 17.8441 21.3077 17.8441 22.1408C17.8441 23.0601 17.6358 23.8573 17.2193 24.5324C16.8171 25.1932 16.2569 25.7103 15.5387 26.0838C14.8204 26.4429 14.0089 26.6225 13.1039 26.6225H8.61072C7.81542 27.708 6.87005 28.6633 5.77463 29.4881C4.563 30.3932 3.19746 31.0683 1.678 31.5135Z" fill="#156064"/>
</svg>
