<svg width="267" height="303" viewBox="0 0 267 303" fill="none" xmlns="http://www.w3.org/2000/svg">
<path fill-rule="evenodd" clip-rule="evenodd" d="M223.841 47.9242C225.944 42.5846 226.567 37.2548 227.481 31.6754C227.66 30.5858 226.92 29.5608 225.83 29.3813C224.74 29.2017 223.711 29.9425 223.532 31.0321C222.665 36.3226 222.113 41.3936 220.117 46.4658C219.713 47.4916 220.22 48.653 221.249 49.0524C222.275 49.4584 223.438 48.9501 223.841 47.9242Z" fill="#303030"/>
<path fill-rule="evenodd" clip-rule="evenodd" d="M233.98 60.177C244.35 52.9939 254.508 43.3274 262.06 33.2042C262.719 32.3198 262.535 31.0675 261.649 30.4121C260.762 29.7566 259.508 29.9374 258.849 30.8218C251.547 40.6095 241.722 49.9586 231.696 56.8992C230.789 57.529 230.565 58.7736 231.196 59.6764C231.826 60.5793 233.073 60.8068 233.98 60.177Z" fill="#303030"/>
<path fill-rule="evenodd" clip-rule="evenodd" d="M235.088 69.6894C243.353 72.2126 252.383 71.0079 260.518 68.6838C261.579 68.3766 262.193 67.2716 261.888 66.2178C261.584 65.1574 260.474 64.5458 259.413 64.8463C252.004 66.9659 243.785 68.1718 236.256 65.8749C235.2 65.5522 234.081 66.1468 233.759 67.1971C233.437 68.2473 234.032 69.3668 235.088 69.6894Z" fill="#303030"/>
<path d="M26.1792 185.99C25.8984 185.124 26.3764 184.194 27.2448 183.919L27.245 183.918C28.1142 183.639 29.0459 184.118 29.3262 184.983C30.9432 189.98 34.0067 193.77 38.5075 196.483L38.5063 196.483C39.2897 196.952 39.5422 197.967 39.069 198.747L39.0687 198.748C38.5975 199.523 37.5791 199.776 36.7981 199.302C31.6038 196.171 28.0503 191.767 26.1792 185.99Z" fill="#303030" stroke="black"/>
<path d="M2.49776 263.596C1.07215 253.962 6.88103 245.182 16.1973 242.561C15.7327 241.665 15.3229 240.741 14.9687 239.799L14.9678 239.799C10.9921 229.214 16.4165 216.806 28.1749 209.253L28.7395 208.897C30.6969 207.687 33.2626 207.021 36.1542 206.747C39.0511 206.473 42.3114 206.589 45.6868 206.971C52.211 207.709 59.2235 209.399 64.8095 210.943C62.5874 209.221 60.4681 207.386 58.377 205.477L54.4256 201.882C45.1662 193.453 35.8153 184.642 30.0731 173.299L30.0724 173.298C29.664 172.484 29.9884 171.492 30.8057 171.086L30.9604 171.017C31.7441 170.719 32.6413 171.06 33.026 171.819L33.0257 171.819C39.3613 184.33 50.2944 193.631 60.6089 203.049C63.837 205.996 67.1103 208.741 70.7335 211.152L70.7344 211.152C71.8251 211.881 72.8854 212.605 73.9929 213.265L73.9941 213.265C73.9941 213.265 74.0067 213.273 74.0407 213.283C74.0751 213.294 74.1196 213.304 74.1776 213.316C74.2366 213.328 74.2969 213.338 74.3701 213.352L74.5976 213.397L74.6032 213.399C74.9964 213.494 75.4057 213.619 75.7078 213.79L75.7104 213.791C76.2611 214.107 76.5801 214.569 76.6971 215.077L76.6983 215.08C76.7815 215.451 76.7674 215.882 76.5505 216.345L76.5483 216.35C76.3903 216.678 76.0489 217.175 75.2673 217.282L75.2664 217.282C75.1765 217.294 75.0745 217.289 74.9963 217.283C74.9006 217.275 74.7825 217.259 74.646 217.236C74.3724 217.19 74.0089 217.109 73.5683 216.979L73.5673 216.979C70.1133 215.955 58.5428 212.122 47.6903 210.554C44.2059 210.049 40.8161 209.764 37.8307 209.895C34.8365 210.026 32.3021 210.576 30.4881 211.698C19.8123 218.302 14.7523 229.057 17.9087 238.215L18.0658 238.65C18.5061 239.823 19.0444 240.956 19.6783 242.034C20.4856 242.09 21.4816 242.258 22.4676 242.535C23.5647 242.843 24.6898 243.295 25.5394 243.899C26.4292 244.533 27.0609 245.353 27.2552 246.295C27.4601 247.283 27.2144 248.389 26.216 249.501L26.2148 249.501C25.3606 250.451 24.1838 250.559 23.0614 250.153C22.0317 249.783 21.0013 248.913 20.5447 248.468C19.6076 247.556 18.7602 246.561 18.0022 245.507C9.63475 247.39 4.38486 255.09 5.8333 263.514L5.83305 263.515C5.9868 264.417 5.37887 265.263 4.48173 265.418L4.47865 265.418C3.58336 265.566 2.72683 264.967 2.57284 264.066L2.49776 263.596ZM22.9177 246.174C23.1676 246.41 23.5769 246.759 23.9929 246.972C23.9946 246.973 23.9964 246.973 23.9983 246.974C23.9993 246.972 24.001 246.97 24.0019 246.968C24.0072 246.958 24.0085 246.949 24.0106 246.943C24.0039 246.924 23.9881 246.888 23.9348 246.833C23.8641 246.76 23.7626 246.681 23.6194 246.579L23.363 246.411C23.2244 246.327 23.0743 246.25 22.9177 246.174Z" fill="#303030" stroke="black"/>
<path d="M113.754 51.4322C113.236 49.2882 110.187 49.2882 109.669 51.4322L108.999 54.2094C108.814 54.9756 108.216 55.5738 107.449 55.7587L104.672 56.4291C102.528 56.9467 102.528 59.9963 104.672 60.5139L107.449 61.1843C108.216 61.3692 108.814 61.9674 108.999 62.7336L109.669 65.5108C110.187 67.6548 113.236 67.6548 113.754 65.5108L114.424 62.7336C114.609 61.9674 115.207 61.3692 115.974 61.1843L118.751 60.5139C120.895 59.9963 120.895 56.9467 118.751 56.4291L115.974 55.7587C115.207 55.5738 114.609 54.9756 114.424 54.2094L113.754 51.4322Z" fill="#CCC6D9"/>
<circle cx="203.212" cy="198.971" r="6" fill="#CCC6D9"/>
<path d="M88.3461 120.811C89.8626 109.452 94.2221 98.6647 101.018 89.4537C107.813 80.2428 116.824 72.9086 127.209 68.1355C137.593 63.3625 149.014 61.3059 160.405 62.1578C171.797 63.0097 182.787 66.7422 192.352 73.0071L218.411 64.1198C219.197 63.8599 220.04 63.8312 220.842 64.0373C221.644 64.2433 222.37 64.6754 222.935 65.2824C223.5 65.8895 223.879 66.6461 224.029 67.4627C224.179 68.2794 224.092 69.1219 223.78 69.8908L213.329 94.8986C218.887 104.188 222.146 114.677 222.834 125.489C223.522 136.301 221.618 147.121 217.281 157.044C212.945 166.966 206.302 175.702 197.91 182.52C189.517 189.338 179.619 194.04 169.043 196.233C158.467 198.426 147.522 198.045 137.123 195.123C126.724 192.2 117.174 186.822 109.272 179.436C101.371 172.051 95.3475 162.875 91.7068 152.675C88.066 142.475 86.9136 131.549 88.3461 120.811Z" fill="#303030"/>
<path d="M43.809 151.131C45.3255 162.489 49.685 173.277 56.4806 182.488C63.2763 191.699 72.2868 199.033 82.6716 203.806C93.0564 208.579 104.477 210.635 115.868 209.784C127.259 208.932 138.25 205.199 147.815 198.934L173.873 207.822C174.66 208.082 175.503 208.11 176.305 207.904C177.107 207.698 177.833 207.266 178.398 206.659C178.963 206.052 179.342 205.295 179.492 204.479C179.642 203.662 179.555 202.819 179.242 202.051L168.792 177.043C174.35 167.754 177.609 157.264 178.297 146.452C178.984 135.64 177.08 124.82 172.744 114.898C168.408 104.975 161.765 96.2396 153.373 89.4214C144.98 82.6031 135.082 77.9009 124.506 75.7083C113.93 73.5157 102.985 73.8965 92.5858 76.8188C82.1867 79.7411 72.6368 85.1199 64.7352 92.505C56.8337 99.8901 50.8104 109.067 47.1697 119.266C43.5289 129.466 42.3765 140.393 43.809 151.131Z" fill="#E1DCEB"/>
<path fill-rule="evenodd" clip-rule="evenodd" d="M98.5797 162.008C98.5797 153.4 104.889 147.103 111.867 147.103C118.845 147.103 125.155 153.4 125.155 162.008H134.155C134.155 149.182 124.537 138.103 111.867 138.103C99.1976 138.103 89.5797 149.182 89.5797 162.008H98.5797Z" fill="white"/>
<path d="M87.6116 137.752C92.0769 137.752 95.6967 134.133 95.6967 129.667C95.6967 125.202 92.0769 121.582 87.6116 121.582C83.1462 121.582 79.5264 125.202 79.5264 129.667C79.5264 134.133 83.1462 137.752 87.6116 137.752Z" fill="white"/>
<path d="M136.123 137.752C140.588 137.752 144.208 134.133 144.208 129.667C144.208 125.202 140.588 121.582 136.123 121.582C131.657 121.582 128.037 125.202 128.037 129.667C128.037 134.133 131.657 137.752 136.123 137.752Z" fill="white"/>
</svg>
