<svg width="177" height="210" viewBox="0 0 177 210" fill="none" xmlns="http://www.w3.org/2000/svg">
<path d="M88.5 196.914C137.239 196.914 176.75 157.403 176.75 108.664C176.75 59.9249 137.239 20.4141 88.5 20.4141C39.7609 20.4141 0.25 59.9249 0.25 108.664C0.25 157.403 39.7609 196.914 88.5 196.914Z" fill="url(#paint0_linear_9525_45021)"/>
<g filter="url(#filter0_d_9525_45021)">
<path d="M37.9034 71.5991H139.097C142.021 71.5991 144.392 73.9697 144.392 76.8941V200.444C144.392 203.368 142.021 205.739 139.097 205.739H37.9034C34.979 205.739 32.6084 203.368 32.6084 200.444V76.8941C32.6084 73.9697 34.979 71.5991 37.9034 71.5991Z" fill="white" stroke="#E5EAEF" stroke-width="1.17667"/>
</g>
<path d="M76.7333 88.6611H46.14C44.1904 88.6611 42.61 90.2416 42.61 92.1911C42.61 94.1407 44.1904 95.7211 46.14 95.7211H76.7333C78.6829 95.7211 80.2633 94.1407 80.2633 92.1911C80.2633 90.2416 78.6829 88.6611 76.7333 88.6611Z" fill="#699FA1"/>
<path d="M97.9133 103.958H46.14C44.1904 103.958 42.61 105.538 42.61 107.488C42.61 109.438 44.1904 111.018 46.14 111.018H97.9133C99.8629 111.018 101.443 109.438 101.443 107.488C101.443 105.538 99.8629 103.958 97.9133 103.958Z" fill="#A8E1E3"/>
<path d="M76.7333 120.431H46.14C44.1904 120.431 42.61 122.011 42.61 123.961C42.61 125.91 44.1904 127.491 46.14 127.491H76.7333C78.6829 127.491 80.2633 125.91 80.2633 123.961C80.2633 122.011 78.6829 120.431 76.7333 120.431Z" fill="#699FA1"/>
<path d="M97.9133 135.728H46.14C44.1904 135.728 42.61 137.308 42.61 139.258C42.61 141.207 44.1904 142.788 46.14 142.788H97.9133C99.8629 142.788 101.443 141.207 101.443 139.258C101.443 137.308 99.8629 135.728 97.9133 135.728Z" fill="#A8E1E3"/>
<path d="M76.7333 152.201H46.14C44.1904 152.201 42.61 153.782 42.61 155.731C42.61 157.681 44.1904 159.261 46.14 159.261H76.7333C78.6829 159.261 80.2633 157.681 80.2633 155.731C80.2633 153.782 78.6829 152.201 76.7333 152.201Z" fill="#699FA1"/>
<path d="M97.9133 167.498H46.14C44.1904 167.498 42.61 169.078 42.61 171.028C42.61 172.978 44.1904 174.558 46.14 174.558H97.9133C99.8629 174.558 101.443 172.978 101.443 171.028C101.443 169.078 99.8629 167.498 97.9133 167.498Z" fill="#A8E1E3"/>
<g filter="url(#filter1_d_9525_45021)">
<path d="M139.097 11H37.9034C34.6541 11 32.02 13.6341 32.02 16.8833V52.1833C32.02 55.4326 34.6541 58.0667 37.9034 58.0667H139.097C142.346 58.0667 144.98 55.4326 144.98 52.1833V16.8833C144.98 13.6341 142.346 11 139.097 11Z" fill="#156064"/>
</g>
<path d="M76.7333 23.9434H46.14C44.1904 23.9434 42.61 25.5238 42.61 27.4734C42.61 29.4229 44.1904 31.0034 46.14 31.0034H76.7333C78.6829 31.0034 80.2633 29.4229 80.2633 27.4734C80.2633 25.5238 78.6829 23.9434 76.7333 23.9434Z" fill="#699FA2"/>
<path d="M97.9133 39.2402H46.14C44.1904 39.2402 42.61 40.8207 42.61 42.7702C42.61 44.7198 44.1904 46.3002 46.14 46.3002H97.9133C99.8629 46.3002 101.443 44.7198 101.443 42.7702C101.443 40.8207 99.8629 39.2402 97.9133 39.2402Z" fill="#A8E1E3"/>
<defs>
<filter id="filter0_d_9525_45021" x="24.96" y="60.4207" width="127.08" height="149.436" filterUnits="userSpaceOnUse" color-interpolation-filters="sRGB">
<feFlood flood-opacity="0" result="BackgroundImageFix"/>
<feColorMatrix in="SourceAlpha" type="matrix" values="0 0 0 0 0 0 0 0 0 0 0 0 0 0 0 0 0 0 127 0" result="hardAlpha"/>
<feOffset dy="-3.53"/>
<feGaussianBlur stdDeviation="3.53"/>
<feColorMatrix type="matrix" values="0 0 0 0 0.788235 0 0 0 0 0.803922 0 0 0 0 0.85098 0 0 0 0.349 0"/>
<feBlend mode="normal" in2="BackgroundImageFix" result="effect1_dropShadow_9525_45021"/>
<feBlend mode="normal" in="SourceGraphic" in2="effect1_dropShadow_9525_45021" result="shape"/>
</filter>
<filter id="filter1_d_9525_45021" x="24.96" y="0.409999" width="127.08" height="61.1864" filterUnits="userSpaceOnUse" color-interpolation-filters="sRGB">
<feFlood flood-opacity="0" result="BackgroundImageFix"/>
<feColorMatrix in="SourceAlpha" type="matrix" values="0 0 0 0 0 0 0 0 0 0 0 0 0 0 0 0 0 0 127 0" result="hardAlpha"/>
<feOffset dy="-3.53"/>
<feGaussianBlur stdDeviation="3.53"/>
<feColorMatrix type="matrix" values="0 0 0 0 0.788235 0 0 0 0 0.803922 0 0 0 0 0.85098 0 0 0 0.349 0"/>
<feBlend mode="normal" in2="BackgroundImageFix" result="effect1_dropShadow_9525_45021"/>
<feBlend mode="normal" in="SourceGraphic" in2="effect1_dropShadow_9525_45021" result="shape"/>
</filter>
<linearGradient id="paint0_linear_9525_45021" x1="88.5" y1="20.4141" x2="88.5" y2="196.914" gradientUnits="userSpaceOnUse">
<stop stop-color="#B6FBFF"/>
<stop offset="1" stop-color="#E3FEFF"/>
</linearGradient>
</defs>
</svg>
