<svg width="281" height="227" viewBox="0 0 281 227" fill="none" xmlns="http://www.w3.org/2000/svg">
<path d="M136.097 227C199.478 227 250.859 176.184 250.859 113.5C250.859 50.8157 199.478 0 136.097 0C72.7156 0 21.335 50.8157 21.335 113.5C21.335 176.184 72.7156 227 136.097 227Z" fill="url(#paint0_linear_18259_17461)"/>
<path fill-rule="evenodd" clip-rule="evenodd" d="M235.113 185.851C236.158 185.483 237.259 184.993 238.108 184.284C239.116 183.442 239.525 182.357 239.801 181.215C240.154 179.748 240.295 178.185 240.724 176.716C240.883 176.17 241.188 175.964 241.319 175.872C241.65 175.641 241.985 175.579 242.3 175.602C242.673 175.629 243.186 175.769 243.523 176.387C243.571 176.476 243.634 176.611 243.676 176.796C243.706 176.931 243.726 177.355 243.759 177.53C243.84 177.96 243.908 178.391 243.971 178.823C244.184 180.264 244.306 181.487 244.976 182.81C245.885 184.607 246.796 185.706 248.032 186.193C249.227 186.663 250.656 186.575 252.481 186.206C252.655 186.164 252.827 186.128 252.997 186.099C253.801 185.96 254.571 186.483 254.729 187.276C254.887 188.068 254.375 188.84 253.578 189.014C253.411 189.051 253.247 189.085 253.085 189.117C250.618 189.721 247.763 191.876 246.103 193.763C245.592 194.345 244.843 195.972 244.079 197.01C243.515 197.776 242.882 198.28 242.35 198.459C241.993 198.579 241.693 198.56 241.445 198.5C241.084 198.412 240.785 198.219 240.555 197.911C240.43 197.743 240.314 197.518 240.259 197.23C240.232 197.092 240.229 196.74 240.23 196.58C240.074 196.051 239.884 195.534 239.745 194.999C239.414 193.724 238.764 192.917 237.992 191.85C237.27 190.852 236.495 190.225 235.358 189.725C235.211 189.689 234.017 189.4 233.596 189.234C232.981 188.991 232.687 188.584 232.581 188.365C232.4 187.993 232.381 187.667 232.417 187.396C232.471 186.996 232.653 186.654 232.975 186.378C233.174 186.206 233.472 186.039 233.871 185.957C234.18 185.894 234.998 185.857 235.113 185.851ZM242.112 183.773C242.167 183.895 242.226 184.018 242.288 184.141C243.62 186.772 245.11 188.241 246.92 188.954L246.981 188.977C245.77 189.866 244.673 190.86 243.835 191.813C243.49 192.205 243.034 193.02 242.54 193.856C242.092 192.415 241.359 191.396 240.437 190.121C239.732 189.148 238.994 188.415 238.087 187.818C238.791 187.461 239.462 187.043 240.047 186.554C241.021 185.74 241.665 184.797 242.112 183.773Z" fill="#E3E3E3"/>
<ellipse cx="5.93515" cy="91.3823" rx="5.43521" ry="5.37545" fill="#E3E3E3"/>
<path d="M52.9331 43.2131C53.0975 43.7829 53.6988 44.1108 54.2741 43.9443L52.9331 43.2131ZM52.9331 43.2131L52.4533 43.3538C51.0764 38.6586 48.3728 34.9973 44.2201 32.3469L44.2199 32.3468M52.9331 43.2131L52.4527 43.3517C52.6949 44.1914 53.5768 44.6667 54.4131 44.4246L54.4138 44.4244C55.2459 44.1823 55.7375 43.3089 55.4891 42.4689C53.894 37.0306 50.7404 32.7673 45.9263 29.6933L44.2199 32.3468M44.2199 32.3468C43.4866 31.8783 43.2687 30.9023 43.7445 30.1681M44.2199 32.3468L43.7445 30.1681M43.7445 30.1681C44.2149 29.4354 45.1942 29.2256 45.9262 29.6932L43.7445 30.1681Z" fill="black" stroke="black"/>
<path d="M103.754 45.0128L103.753 45.013C102.493 45.6491 101.418 45.607 100.559 45.1815C99.7403 44.7767 99.1418 44.0031 98.778 43.0431L98.7779 43.0429C98.4312 42.1271 98.2928 41.0008 98.2784 39.9364C98.2655 38.9878 98.3507 38.0553 98.4935 37.3148C97.6707 36.4924 96.7755 35.7421 95.8212 35.0694C88.2517 29.7337 77.0302 31.6407 68.298 39.7942C66.8429 41.1536 65.7309 43.2979 64.8862 45.9603C64.0442 48.6144 63.4833 51.7333 63.098 54.9912L63.098 54.9912C62.0533 63.8145 62.4349 73.5367 62.6152 78.131C62.6423 78.8202 62.6648 79.394 62.6773 79.832L62.6774 79.8331C62.6886 80.2627 62.6742 80.6108 62.6499 80.8701C62.6379 80.9994 62.6231 81.1099 62.607 81.1993C62.5938 81.2723 62.5733 81.3707 62.5375 81.4536C62.2438 82.1452 61.6975 82.336 61.3575 82.4002L61.3522 82.4011C60.8721 82.4864 60.4716 82.3949 60.1488 82.2284L60.1462 82.2271C59.7057 81.9966 59.3559 81.5916 59.1988 81.0093L59.1978 81.0057C59.1144 80.6872 59.0993 80.2842 59.1081 79.9064L59.1083 79.9012C59.1109 79.8248 59.1166 79.7496 59.122 79.6837C59.1232 79.6687 59.1244 79.6543 59.1255 79.6405C59.1297 79.5898 59.1333 79.5458 59.136 79.5022C59.1393 79.4477 59.1402 79.4067 59.1389 79.375C59.1375 79.3426 59.1343 79.3329 59.1356 79.3376C58.8453 78.3299 58.5031 77.3429 58.1549 76.3386C58.104 76.1919 58.053 76.0448 58.0021 75.8972L58.0017 75.8962C56.6853 72.0575 54.9807 68.4538 53.0791 64.8405L53.5216 64.6077L53.0791 64.8405C52.5683 63.8699 52.0594 62.8956 51.5498 61.9199C45.9954 51.2861 40.3562 40.4897 31.3322 32.5206L31.3321 32.5205C30.6809 31.945 30.6151 30.9472 31.1991 30.2945C31.7777 29.6428 32.7752 29.588 33.4289 30.1607L33.4303 30.162C42.8603 38.4875 48.7527 49.7541 54.4511 60.6497C54.9282 61.562 55.404 62.4717 55.8804 63.3769L55.8804 63.3769C57.0897 65.6754 58.2274 67.9814 59.2438 70.3502C59.1958 64.9737 59.3628 58.318 60.2642 52.3175C60.7347 49.1841 61.4197 46.217 62.3727 43.6704C63.324 41.1287 64.5546 38.9724 66.1361 37.4949L66.1362 37.4948C75.9315 28.3482 88.8212 26.2724 97.6476 32.4967L97.6478 32.4968C98.4118 33.036 99.147 33.6196 99.8437 34.2453C104.579 26.3642 114.216 23.2738 122.746 27.1474C123.543 27.5081 123.893 28.4438 123.531 29.2357L123.531 29.2357L123.53 29.2387C123.163 30.0276 122.229 30.375 121.434 30.0155L121.434 30.0152C114.132 26.6997 105.872 29.569 102.131 36.6202C102.903 37.552 103.6 38.5498 104.201 39.6079C104.496 40.1271 105.042 41.2699 105.129 42.2944C105.228 43.4155 104.838 44.4646 103.754 45.0128ZM101.737 41.9292L101.737 41.9297C101.796 42.0831 101.841 42.1896 101.889 42.2678C101.909 42.3013 101.926 42.3226 101.939 42.3361C101.861 42.0081 101.712 41.6674 101.58 41.406C101.624 41.5923 101.676 41.768 101.737 41.9292Z" fill="black" stroke="black"/>
<rect x="83.1317" y="58.8867" width="197.556" height="70.4335" rx="24" fill="black"/>
<rect x="164.681" y="83.1338" width="66.6179" height="9.23718" rx="4.61859" fill="#CCC6D9"/>
<rect x="100.361" y="96.9893" width="131.274" height="9.23718" rx="4.61859" fill="white"/>
<ellipse cx="255.419" cy="94.6803" rx="11.4858" ry="11.5465" fill="#E1DCEB"/>
<rect x="0.499939" y="117.773" width="197.556" height="70.4335" rx="24" fill="#E1DCEB"/>
<rect x="49.889" y="142.021" width="66.6179" height="9.23718" rx="4.61859" fill="black"/>
<rect x="49.889" y="155.877" width="131.274" height="9.23719" rx="4.61859" fill="white"/>
<ellipse cx="29.2145" cy="153.568" rx="11.4858" ry="11.5465" fill="#CCC6D9"/>
<defs>
<linearGradient id="paint0_linear_18259_17461" x1="135.212" y1="-36.9584" x2="137.512" y2="361.637" gradientUnits="userSpaceOnUse">
<stop stop-color="#F2F2F2"/>
<stop offset="1" stop-color="#EFEFEF"/>
</linearGradient>
</defs>
</svg>
