<svg width="183" height="34" viewBox="0 0 183 34" fill="none" xmlns="http://www.w3.org/2000/svg">
<path fill-rule="evenodd" clip-rule="evenodd" d="M4.67795 32.5135H16.7502C18.79 32.5135 20.4993 32.1257 21.8783 31.35C23.2717 30.5743 24.3202 29.497 25.0241 28.118C25.7279 26.739 26.0799 25.1302 26.0799 23.2916C26.0799 21.4961 25.5699 19.8945 24.5501 18.4867C23.8079 17.4477 22.8074 16.6707 21.5486 16.156C22.2841 15.7135 22.904 15.1186 23.4081 14.3714C24.2269 13.1791 24.6363 11.7283 24.6363 10.019C24.6363 8.62564 24.3059 7.27539 23.6451 5.96824C22.9987 4.66109 22.0004 3.59095 20.6502 2.75782C19.3143 1.91032 17.5977 1.48657 15.5006 1.48657L4.66026 1.48657C6.18681 1.93527 7.55825 2.61758 8.77458 3.53349C9.85331 4.33929 10.7865 5.27297 11.5742 6.33453H15.4359C16.6712 6.33453 17.6337 6.69364 18.3231 7.41185C19.0126 8.13007 19.3574 9.02784 19.3574 10.1052C19.3574 10.9239 19.185 11.6134 18.8403 12.1736C18.4955 12.7338 18.0287 13.1576 17.4397 13.4449C16.8508 13.7322 16.1829 13.8758 15.4359 13.8758H8.45485V11.8624C7.84062 9.99595 6.84832 8.52681 5.47797 7.45495C4.80935 6.92534 4.04919 6.51778 3.19751 6.23225V27.7678C4.04919 27.4823 4.80935 27.0747 5.47797 26.5451C6.84832 25.4597 7.84062 23.9898 8.45485 22.1355V18.7238H16.2547C17.2171 18.7238 18.043 18.9249 18.7325 19.3271C19.422 19.7149 19.9463 20.2392 20.3054 20.9C20.6645 21.5607 20.8441 22.3077 20.8441 23.1408C20.8441 24.0601 20.6358 24.8573 20.2192 25.5324C19.817 26.1932 19.2568 26.7103 18.5386 27.0838C17.8204 27.4429 17.0088 27.6225 16.1039 27.6225H11.6107C10.8154 28.708 9.87001 29.6633 8.77458 30.4881C7.56295 31.3932 6.19741 32.0683 4.67795 32.5135Z" fill="#156064"/>
<path d="M45.3399 28.4221C43.314 28.4221 41.5789 27.9812 40.1345 27.0996C38.6901 26.2086 37.5787 24.9706 36.8002 23.3855C36.0311 21.8004 35.6466 19.9621 35.6466 17.8706C35.6466 15.7791 36.0311 13.9408 36.8002 12.3557C37.5787 10.7707 38.6901 9.53733 40.1345 8.65569C41.5789 7.76468 43.314 7.31918 45.3399 7.31918C47.6752 7.31918 49.6214 7.90537 51.1783 9.07775C52.7352 10.2408 53.8279 11.8117 54.4563 13.7907L51.0376 14.7333C50.6437 13.4109 49.9731 12.3792 49.0258 11.6382C48.0785 10.8879 46.8499 10.5127 45.3399 10.5127C43.9799 10.5127 42.845 10.8176 41.9353 11.4272C41.0349 12.0368 40.3549 12.895 39.8953 14.0018C39.4451 15.0991 39.2153 16.3887 39.206 17.8706C39.206 19.3525 39.4311 20.6468 39.8813 21.7535C40.3408 22.8509 41.0255 23.7044 41.9353 24.314C42.845 24.9237 43.9799 25.2285 45.3399 25.2285C46.8499 25.2285 48.0785 24.8533 49.0258 24.103C49.9731 23.3527 50.6437 22.321 51.0376 21.0079L54.4563 21.9505C53.8279 23.9295 52.7352 25.5052 51.1783 26.6776C49.6214 27.8406 47.6752 28.4221 45.3399 28.4221ZM57.4749 28V7.74124H65.8457C66.0427 7.74124 66.2959 7.75062 66.6054 7.76937C66.9149 7.77875 67.201 7.80689 67.4636 7.85379C68.636 8.03199 69.602 8.42122 70.3617 9.02148C71.1308 9.62174 71.6982 10.3814 72.064 11.3006C72.4392 12.2104 72.6268 13.2233 72.6268 14.3394C72.6268 15.9901 72.2094 17.411 71.3747 18.6022C70.5399 19.7839 69.2597 20.5155 67.5339 20.7969L66.0849 20.9235H60.8654V28H57.4749ZM69.1096 28L65.1141 19.7558L68.5609 18.9961L72.9503 28H69.1096ZM60.8654 17.7581H65.705C65.8926 17.7581 66.1036 17.7487 66.3381 17.7299C66.5726 17.7112 66.7883 17.6737 66.9853 17.6174C67.548 17.4767 67.9888 17.2282 68.3077 16.8717C68.636 16.5153 68.8658 16.112 68.9971 15.6619C69.1378 15.2117 69.2081 14.7708 69.2081 14.3394C69.2081 13.908 69.1378 13.4672 68.9971 13.017C68.8658 12.5574 68.636 12.1494 68.3077 11.793C67.9888 11.4366 67.548 11.188 66.9853 11.0474C66.7883 10.9911 66.5726 10.9583 66.3381 10.9489C66.1036 10.9301 65.8926 10.9207 65.705 10.9207H60.8654V17.7581ZM75.9795 28V7.74124H89.0633V10.9207H79.37V15.9151H87.375V19.0946H79.37V24.8205H89.0633V28H75.9795ZM92.3683 28V7.74124H98.8258C98.9946 7.74124 99.3275 7.74593 99.8246 7.75531C100.331 7.76468 100.819 7.79751 101.288 7.85379C102.892 8.06012 104.247 8.63225 105.354 9.57015C106.47 10.4987 107.314 11.6851 107.886 13.1295C108.458 14.5739 108.744 16.1543 108.744 17.8706C108.744 19.587 108.458 21.1674 107.886 22.6117C107.314 24.0561 106.47 25.2472 105.354 26.1852C104.247 27.1137 102.892 27.6811 101.288 27.8875C100.828 27.9437 100.345 27.9766 99.8387 27.9859C99.3322 27.9953 98.9946 28 98.8258 28H92.3683ZM95.8151 24.8064H98.8258C99.1071 24.8064 99.4635 24.7971 99.895 24.7783C100.336 24.7595 100.725 24.7173 101.063 24.6517C102.019 24.4735 102.798 24.0467 103.398 23.3714C103.998 22.6961 104.439 21.8755 104.721 20.9094C105.011 19.9434 105.157 18.9305 105.157 17.8706C105.157 16.7733 105.011 15.7416 104.721 14.7755C104.43 13.8095 103.98 12.9982 103.37 12.3417C102.77 11.6851 102.001 11.2678 101.063 11.0896C100.725 11.0145 100.336 10.9723 99.895 10.9629C99.4635 10.9442 99.1071 10.9348 98.8258 10.9348H95.8151V24.8064Z" fill="#333333"/>
<path d="M111.999 28V7.74124H120.033C121.402 7.74124 122.523 8.01792 123.395 8.57128C124.277 9.11527 124.928 9.81401 125.351 10.6675C125.782 11.521 125.998 12.4026 125.998 13.3124C125.998 14.4285 125.73 15.3758 125.196 16.1543C124.671 16.9327 123.953 17.4579 123.043 17.7299V17.0265C124.319 17.3173 125.285 17.9222 125.941 18.8414C126.607 19.7605 126.94 20.8063 126.94 21.9786C126.94 23.1792 126.711 24.2296 126.251 25.13C125.791 26.0304 125.107 26.7338 124.197 27.2403C123.297 27.7468 122.18 28 120.849 28H111.999ZM115.432 24.8064H120.427C121.017 24.8064 121.547 24.6892 122.016 24.4547C122.485 24.2109 122.851 23.8732 123.114 23.4418C123.386 23.001 123.522 22.4804 123.522 21.8802C123.522 21.3362 123.404 20.8485 123.17 20.417C122.935 19.9856 122.593 19.6433 122.143 19.39C121.693 19.1274 121.153 18.9961 120.525 18.9961H115.432V24.8064ZM115.432 15.8307H119.99C120.478 15.8307 120.914 15.7369 121.299 15.5493C121.683 15.3617 121.988 15.085 122.213 14.7193C122.438 14.3535 122.551 13.9033 122.551 13.3687C122.551 12.6652 122.326 12.0791 121.876 11.6101C121.425 11.1411 120.797 10.9067 119.99 10.9067H115.432V15.8307ZM129.68 28V7.74124H142.764V10.9207H133.07V15.9151H141.075V19.0946H133.07V24.8205H142.764V28H129.68ZM150.627 28L144.24 7.74124H147.729L153.075 24.708L158.491 7.74124H161.98L155.593 28H150.627ZM168.948 28V19.6995L162.054 7.74124H166.007L170.664 15.8166L175.307 7.74124H179.26L172.38 19.6995V28H168.948Z" fill="#156064"/>
</svg>
