<svg width="183" height="35" viewBox="0 0 183 35" fill="none" xmlns="http://www.w3.org/2000/svg">
<path fill-rule="evenodd" clip-rule="evenodd" d="M4.67795 32.6546H16.7502C18.79 32.6546 20.4993 32.2668 21.8783 31.4911C23.2717 30.7154 24.3202 29.6381 25.0241 28.2591C25.7279 26.8802 26.0799 25.2714 26.0799 23.4327C26.0799 21.6372 25.5699 20.0356 24.5501 18.6279C23.8079 17.5888 22.8074 16.8119 21.5486 16.2971C22.2841 15.8546 22.904 15.2597 23.4081 14.5125C24.2269 13.3202 24.6363 11.8694 24.6363 10.1601C24.6363 8.76675 24.3059 7.41651 23.6451 6.10935C22.9987 4.8022 22.0004 3.73206 20.6502 2.89893C19.3143 2.05143 17.5977 1.62769 15.5006 1.62769L4.66026 1.62769C6.18681 2.07639 7.55825 2.75869 8.77458 3.6746C9.85331 4.4804 10.7865 5.41408 11.5742 6.47564H15.4359C16.6712 6.47564 17.6337 6.83475 18.3231 7.55297C19.0126 8.27118 19.3574 9.16895 19.3574 10.2463C19.3574 11.065 19.185 11.7545 18.8403 12.3147C18.4955 12.8749 18.0287 13.2987 17.4397 13.586C16.8508 13.8733 16.1829 14.0169 15.4359 14.0169H8.45485V12.0035C7.84062 10.1371 6.84832 8.66792 5.47797 7.59606C4.80935 7.06646 4.04919 6.65889 3.19751 6.37337V27.9089C4.04919 27.6234 4.80935 27.2158 5.47797 26.6862C6.84832 25.6008 7.84062 24.1309 8.45485 22.2766V18.8649H16.2547C17.2171 18.8649 18.043 19.066 18.7325 19.4682C19.422 19.856 19.9463 20.3803 20.3054 21.0411C20.6645 21.7018 20.8441 22.4488 20.8441 23.2819C20.8441 24.2012 20.6358 24.9984 20.2192 25.6736C19.817 26.3343 19.2568 26.8514 18.5386 27.2249C17.8204 27.584 17.0088 27.7636 16.1039 27.7636H11.6107C10.8154 28.8492 9.87001 29.8044 8.77458 30.6293C7.56295 31.5343 6.19741 32.2094 4.67795 32.6546Z" fill="white"/>
<path d="M45.3399 28.5632C43.314 28.5632 41.5789 28.1224 40.1345 27.2407C38.6901 26.3497 37.5787 25.1117 36.8002 23.5266C36.0311 21.9416 35.6466 20.1033 35.6466 18.0117C35.6466 15.9202 36.0311 14.0819 36.8002 12.4968C37.5787 10.9118 38.6901 9.67844 40.1345 8.79681C41.5789 7.9058 43.314 7.46029 45.3399 7.46029C47.6752 7.46029 49.6214 8.04648 51.1783 9.21887C52.7352 10.3819 53.8279 11.9529 54.4563 13.9318L51.0376 14.8744C50.6437 13.552 49.9731 12.5203 49.0258 11.7793C48.0785 11.029 46.8499 10.6539 45.3399 10.6539C43.9799 10.6539 42.845 10.9587 41.9353 11.5683C41.0349 12.178 40.3549 13.0361 39.8953 14.1429C39.4451 15.2402 39.2153 16.5298 39.206 18.0117C39.206 19.4936 39.4311 20.7879 39.8813 21.8947C40.3408 22.992 41.0255 23.8455 41.9353 24.4551C42.845 25.0648 43.9799 25.3696 45.3399 25.3696C46.8499 25.3696 48.0785 24.9944 49.0258 24.2441C49.9731 23.4938 50.6437 22.4621 51.0376 21.149L54.4563 22.0916C53.8279 24.0706 52.7352 25.6463 51.1783 26.8187C49.6214 27.9817 47.6752 28.5632 45.3399 28.5632ZM57.4749 28.1411V7.88235H65.8457C66.0427 7.88235 66.2959 7.89173 66.6054 7.91049C66.9149 7.91987 67.201 7.948 67.4636 7.9949C68.636 8.1731 69.602 8.56233 70.3617 9.16259C71.1308 9.76285 71.6982 10.5226 72.064 11.4417C72.4392 12.3515 72.6268 13.3644 72.6268 14.4805C72.6268 16.1312 72.2094 17.5522 71.3747 18.7433C70.5399 19.9251 69.2597 20.6566 67.5339 20.938L66.0849 21.0646H60.8654V28.1411H57.4749ZM69.1096 28.1411L65.1141 19.8969L68.5609 19.1372L72.9503 28.1411H69.1096ZM60.8654 17.8992H65.705C65.8926 17.8992 66.1036 17.8898 66.3381 17.871C66.5726 17.8523 66.7883 17.8148 66.9853 17.7585C67.548 17.6178 67.9888 17.3693 68.3077 17.0129C68.636 16.6565 68.8658 16.2532 68.9971 15.803C69.1378 15.3528 69.2081 14.912 69.2081 14.4805C69.2081 14.0491 69.1378 13.6083 68.9971 13.1581C68.8658 12.6985 68.636 12.2905 68.3077 11.9341C67.9888 11.5777 67.548 11.3292 66.9853 11.1885C66.7883 11.1322 66.5726 11.0994 66.3381 11.09C66.1036 11.0712 65.8926 11.0618 65.705 11.0618H60.8654V17.8992ZM75.9795 28.1411V7.88235H89.0633V11.0618H79.37V16.0562H87.375V19.2357H79.37V24.9616H89.0633V28.1411H75.9795ZM92.3683 28.1411V7.88235H98.8258C98.9946 7.88235 99.3275 7.88704 99.8246 7.89642C100.331 7.9058 100.819 7.93862 101.288 7.9949C102.892 8.20124 104.247 8.77336 105.354 9.71127C106.47 10.6398 107.314 11.8262 107.886 13.2706C108.458 14.715 108.744 16.2954 108.744 18.0117C108.744 19.7281 108.458 21.3085 107.886 22.7528C107.314 24.1972 106.47 25.3884 105.354 26.3263C104.247 27.2548 102.892 27.8222 101.288 28.0286C100.828 28.0848 100.345 28.1177 99.8387 28.127C99.3322 28.1364 98.9946 28.1411 98.8258 28.1411H92.3683ZM95.8151 24.9475H98.8258C99.1071 24.9475 99.4635 24.9382 99.895 24.9194C100.336 24.9006 100.725 24.8584 101.063 24.7928C102.019 24.6146 102.798 24.1878 103.398 23.5125C103.998 22.8373 104.439 22.0166 104.721 21.0505C105.011 20.0845 105.157 19.0716 105.157 18.0117C105.157 16.9144 105.011 15.8827 104.721 14.9166C104.43 13.9506 103.98 13.1393 103.37 12.4828C102.77 11.8262 102.001 11.4089 101.063 11.2307C100.725 11.1556 100.336 11.1134 99.895 11.1041C99.4635 11.0853 99.1071 11.0759 98.8258 11.0759H95.8151V24.9475ZM111.999 28.1411V7.88235H120.033C121.402 7.88235 122.523 8.15903 123.395 8.7124C124.277 9.25638 124.928 9.95512 125.351 10.8086C125.782 11.6621 125.998 12.5437 125.998 13.4535C125.998 14.5696 125.73 15.5169 125.196 16.2954C124.671 17.0738 123.953 17.5991 123.043 17.871V17.1676C124.319 17.4584 125.285 18.0633 125.941 18.9825C126.607 19.9016 126.94 20.9474 126.94 22.1198C126.94 23.3203 126.711 24.3707 126.251 25.2711C125.791 26.1715 125.107 26.8749 124.197 27.3814C123.297 27.8879 122.18 28.1411 120.849 28.1411H111.999ZM115.432 24.9475H120.427C121.017 24.9475 121.547 24.8303 122.016 24.5958C122.485 24.352 122.851 24.0143 123.114 23.5829C123.386 23.1421 123.522 22.6215 123.522 22.0213C123.522 21.4773 123.404 20.9896 123.17 20.5581C122.935 20.1267 122.593 19.7844 122.143 19.5311C121.693 19.2685 121.153 19.1372 120.525 19.1372H115.432V24.9475ZM115.432 15.9718H119.99C120.478 15.9718 120.914 15.878 121.299 15.6904C121.683 15.5028 121.988 15.2262 122.213 14.8604C122.438 14.4946 122.551 14.0444 122.551 13.5098C122.551 12.8064 122.326 12.2202 121.876 11.7512C121.425 11.2823 120.797 11.0478 119.99 11.0478H115.432V15.9718ZM129.68 28.1411V7.88235H142.764V11.0618H133.07V16.0562H141.075V19.2357H133.07V24.9616H142.764V28.1411H129.68ZM150.627 28.1411L144.24 7.88235H147.729L153.075 24.8491L158.491 7.88235H161.98L155.593 28.1411H150.627ZM168.948 28.1411V19.8406L162.054 7.88235H166.007L170.664 15.9577L175.307 7.88235H179.26L172.38 19.8406V28.1411H168.948Z" fill="white"/>
</svg>
