<svg width="183" height="35" viewBox="0 0 183 35" fill="none" xmlns="http://www.w3.org/2000/svg">
<rect x="3.72864" y="9.66016" width="21.8204" height="2.33778" rx="1.16889" fill="white"/>
<rect x="0.00012207" y="13.8682" width="29.2774" height="2.33778" rx="1.16889" fill="white"/>
<rect x="0.00012207" y="18.0762" width="29.2774" height="2.33778" rx="1.16889" fill="white"/>
<rect x="3.72864" y="22.2844" width="21.8204" height="2.33778" rx="1.16889" fill="white"/>
<path d="M48.5374 28.5632C46.5115 28.5632 44.7764 28.1224 43.332 27.2407C41.8876 26.3497 40.7762 25.1117 39.9977 23.5266C39.2287 21.9416 38.8441 20.1033 38.8441 18.0117C38.8441 15.9202 39.2287 14.0819 39.9977 12.4968C40.7762 10.9118 41.8876 9.67844 43.332 8.79681C44.7764 7.9058 46.5115 7.46029 48.5374 7.46029C50.8728 7.46029 52.8189 8.04648 54.3758 9.21887C55.9328 10.3819 57.0254 11.9529 57.6538 13.9318L54.2351 14.8744C53.8412 13.552 53.1706 12.5203 52.2233 11.7793C51.2761 11.029 50.0474 10.6539 48.5374 10.6539C47.1774 10.6539 46.0425 10.9587 45.1328 11.5683C44.2324 12.178 43.5524 13.0361 43.0928 14.1429C42.6426 15.2402 42.4128 16.5298 42.4035 18.0117C42.4035 19.4936 42.6286 20.7879 43.0788 21.8947C43.5383 22.992 44.223 23.8455 45.1328 24.4551C46.0425 25.0648 47.1774 25.3696 48.5374 25.3696C50.0474 25.3696 51.2761 24.9944 52.2233 24.2441C53.1706 23.4938 53.8412 22.4621 54.2351 21.149L57.6538 22.0916C57.0254 24.0706 55.9328 25.6463 54.3758 26.8187C52.8189 27.9817 50.8728 28.5632 48.5374 28.5632ZM60.6724 28.1411V7.88235H69.0432C69.2402 7.88235 69.4934 7.89173 69.8029 7.91049C70.1124 7.91987 70.3985 7.948 70.6611 7.9949C71.8335 8.1731 72.7995 8.56233 73.5592 9.16259C74.3283 9.76285 74.8957 10.5226 75.2615 11.4417C75.6367 12.3515 75.8243 13.3644 75.8243 14.4805C75.8243 16.1312 75.4069 17.5522 74.5722 18.7433C73.7374 19.9251 72.4572 20.6566 70.7314 20.938L69.2824 21.0646H64.0629V28.1411H60.6724ZM72.3071 28.1411L68.3116 19.8969L71.7585 19.1372L76.1478 28.1411H72.3071ZM64.0629 17.8992H68.9025C69.0901 17.8992 69.3011 17.8898 69.5356 17.871C69.7701 17.8523 69.9858 17.8148 70.1828 17.7585C70.7455 17.6178 71.1863 17.3693 71.5052 17.0129C71.8335 16.6565 72.0633 16.2532 72.1946 15.803C72.3353 15.3528 72.4056 14.912 72.4056 14.4805C72.4056 14.0491 72.3353 13.6083 72.1946 13.1581C72.0633 12.6985 71.8335 12.2905 71.5052 11.9341C71.1863 11.5777 70.7455 11.3292 70.1828 11.1885C69.9858 11.1322 69.7701 11.0994 69.5356 11.09C69.3011 11.0712 69.0901 11.0618 68.9025 11.0618H64.0629V17.8992ZM79.177 28.1411V7.88235H92.2608V11.0618H82.5675V16.0562H90.5725V19.2357H82.5675V24.9616H92.2608V28.1411H79.177ZM95.5658 28.1411V7.88235H102.023C102.192 7.88235 102.525 7.88704 103.022 7.89642C103.529 7.9058 104.016 7.93862 104.485 7.9949C106.089 8.20124 107.444 8.77336 108.551 9.71127C109.667 10.6398 110.511 11.8262 111.083 13.2706C111.656 14.715 111.942 16.2954 111.942 18.0117C111.942 19.7281 111.656 21.3085 111.083 22.7528C110.511 24.1972 109.667 25.3884 108.551 26.3263C107.444 27.2548 106.089 27.8222 104.485 28.0286C104.026 28.0848 103.543 28.1177 103.036 28.127C102.53 28.1364 102.192 28.1411 102.023 28.1411H95.5658ZM99.0126 24.9475H102.023C102.305 24.9475 102.661 24.9382 103.092 24.9194C103.533 24.9006 103.923 24.8584 104.26 24.7928C105.217 24.6146 105.995 24.1878 106.596 23.5125C107.196 22.8373 107.637 22.0166 107.918 21.0505C108.209 20.0845 108.354 19.0716 108.354 18.0117C108.354 16.9144 108.209 15.8827 107.918 14.9166C107.627 13.9506 107.177 13.1393 106.567 12.4828C105.967 11.8262 105.198 11.4089 104.26 11.2307C103.923 11.1556 103.533 11.1134 103.092 11.1041C102.661 11.0853 102.305 11.0759 102.023 11.0759H99.0126V24.9475ZM115.197 28.1411V7.88235H123.23C124.599 7.88235 125.72 8.15903 126.593 8.7124C127.474 9.25638 128.126 9.95512 128.548 10.8086C128.979 11.6621 129.195 12.5437 129.195 13.4535C129.195 14.5696 128.928 15.5169 128.393 16.2954C127.868 17.0738 127.151 17.5991 126.241 17.871V17.1676C127.516 17.4584 128.482 18.0633 129.139 18.9825C129.805 19.9016 130.138 20.9474 130.138 22.1198C130.138 23.3203 129.908 24.3707 129.448 25.2711C128.989 26.1715 128.304 26.8749 127.394 27.3814C126.494 27.8879 125.378 28.1411 124.046 28.1411H115.197ZM118.63 24.9475H123.624C124.215 24.9475 124.745 24.8303 125.214 24.5958C125.683 24.352 126.049 24.0143 126.311 23.5829C126.583 23.1421 126.719 22.6215 126.719 22.0213C126.719 21.4773 126.602 20.9896 126.367 20.5581C126.133 20.1267 125.791 19.7844 125.34 19.5311C124.89 19.2685 124.351 19.1372 123.723 19.1372H118.63V24.9475ZM118.63 15.9718H123.188C123.676 15.9718 124.112 15.878 124.496 15.6904C124.881 15.5028 125.186 15.2262 125.411 14.8604C125.636 14.4946 125.748 14.0444 125.748 13.5098C125.748 12.8064 125.523 12.2202 125.073 11.7512C124.623 11.2823 123.995 11.0478 123.188 11.0478H118.63V15.9718ZM132.877 28.1411V7.88235H145.961V11.0618H136.268V16.0562H144.273V19.2357H136.268V24.9616H145.961V28.1411H132.877ZM153.824 28.1411L147.437 7.88235H150.926L156.272 24.8491L161.689 7.88235H165.178L158.79 28.1411H153.824ZM172.145 28.1411V19.8406L165.251 7.88235H169.205L173.861 15.9577L178.504 7.88235H182.457L175.578 19.8406V28.1411H172.145Z" fill="white"/>
</svg>
