<?xml version="1.0" encoding="utf-8"?>
<!-- Generator: Adobe Illustrator 27.7.0, SVG Export Plug-In . SVG Version: 6.00 Build 0)  -->
<svg version="1.1" id="Layer_1" xmlns="http://www.w3.org/2000/svg" xmlns:xlink="http://www.w3.org/1999/xlink" x="0px" y="0px"
	 viewBox="0 0 512 512" style="enable-background:new 0 0 512 512;" xml:space="preserve">
<g>
	<path d="M128,448V97.66l0-0.14l-29.56,0.13H128l0-0.13l-29.56,0.13H128l1.6-1.6l0.56-0.01l-0.56-31.42l0,31.43l0.56,0l-0.56-31.42
		l0,31.43l1.4,0.82l0,0.01L325.05,446.2l0-0.01c11.98,21.55,34.4,33.81,57.38,33.76c10.77,0.01,21.82-2.7,31.81-8.25
		c20.84-11.57,33.76-33.52,33.76-57.35l0-0.11l-31.87,0.11l31.82,1.75l0.05-1.86l-31.87,0.11l31.82,1.75l0.05-1.76V64
		c0-17.67-14.33-32-32-32c-17.67,0-32,14.33-32,32l0,350.34h32l-31.95-1.76L384,414.2l0,0.26l31.25-0.11H384l0,0.11l31.25-0.11H384
		l-0.82,1.4l-0.75,0.21l-1.43-0.83l0-0.01L186.95,65.8l0,0.01c-11.57-20.84-33.52-33.76-57.35-33.76l-0.58,0.01l0.57,31.99l-0.01-32
		C93.34,32.09,64.02,61.42,64,97.65l0,0.15l0-0.14V448c0,17.67,14.33,32,32,32S128,465.67,128,448L128,448z"/>
	<path d="M32,224h448c17.67,0,32-14.33,32-32c0-17.67-14.33-32-32-32H32c-17.67,0-32,14.33-32,32C0,209.67,14.33,224,32,224"/>
	<path d="M32,352h448c17.67,0,32-14.33,32-32c0-17.67-14.33-32-32-32H32c-17.67,0-32,14.33-32,32C0,337.67,14.33,352,32,352"/>
</g>
</svg>
