<svg width="107" height="107" viewBox="0 0 107 107" fill="none" xmlns="http://www.w3.org/2000/svg">
<g clip-path="url(#clip0_9755_41838)">
<circle cx="53.5" cy="53.5" r="51" fill="#FFCDC7" stroke="#FCE5E2" stroke-width="5"/>
<path d="M69.783 42.6077C63.7584 42.0107 57.6977 41.7031 51.655 41.7031C48.0728 41.7031 44.4907 41.884 40.9085 42.2459L37.2178 42.6077" stroke="#E33A24" stroke-width="2" stroke-linecap="round" stroke-linejoin="round"/>
<path d="M47.168 40.7815L47.566 38.4114C47.8555 36.6927 48.0726 35.4082 51.1301 35.4082H55.8701C58.9276 35.4082 59.1628 36.7651 59.4342 38.4295L59.8322 40.7815" stroke="#E33A24" stroke-width="2" stroke-linecap="round" stroke-linejoin="round"/>
<path d="M65.8932 48.3242L64.7172 66.5426C64.5182 69.3831 64.3554 71.5903 59.3078 71.5903H47.6928C42.6452 71.5903 42.4824 69.3831 42.2834 66.5426L41.1074 48.3242" stroke="#E33A24" stroke-width="2" stroke-linecap="round" stroke-linejoin="round"/>
<path d="M50.4785 61.6406H56.5031" stroke="#E33A24" stroke-width="2" stroke-linecap="round" stroke-linejoin="round"/>
<path d="M48.9775 54.4043H58.0234" stroke="#E33A24" stroke-width="2" stroke-linecap="round" stroke-linejoin="round"/>
</g>
<defs>
<clipPath id="clip0_9755_41838">
<rect width="107" height="107" fill="white"/>
</clipPath>
</defs>
</svg>
